<svg width="200" height="200" viewBox="0 0 200 200" fill="none" xmlns="http://www.w3.org/2000/svg">
<rect width="200" height="200" rx="40" fill="#D4AF37"/>
<path d="M50 150V50C50 44.4772 54.4772 40 60 40H150V80H70C64.4772 80 60 84.4772 60 90V150H50Z" fill="#1E293B"/>
<path d="M150 160C155.523 160 160 155.523 160 150C160 144.477 155.523 140 150 140C144.477 140 140 144.477 140 150C140 155.523 144.477 160 150 160Z" fill="#1E293B"/>
<path d="M90 160C95.5228 160 100 155.523 100 150C100 144.477 95.5228 140 90 140C84.4772 140 80 144.477 80 150C80 155.523 84.4772 160 90 160Z" fill="#1E293B"/>
</svg>
